<?xml version="1.0" encoding="utf-8" standalone="no"?>
<!DOCTYPE svg PUBLIC "-//W3C//DTD SVG 1.1//EN"
  "http://www.w3.org/Graphics/SVG/1.1/DTD/svg11.dtd">
<svg height="360pt" version="1.1" viewBox="0 0 864 360" width="864pt" xmlns="http://www.w3.org/2000/svg" xmlns:xlink="http://www.w3.org/1999/xlink">
 <metadata>
  <rdf:RDF xmlns:cc="http://creativecommons.org/ns#" xmlns:dc="http://purl.org/dc/elements/1.1/" xmlns:rdf="http://www.w3.org/1999/02/22-rdf-syntax-ns#">
   <cc:Work>
    <dc:type rdf:resource="http://purl.org/dc/dcmitype/StillImage"/>
    <dc:date>2021-04-27T16:26:41.030689</dc:date>
    <dc:format>image/svg+xml</dc:format>
    <dc:creator>
     <cc:Agent>
      <dc:title>Matplotlib v3.4.0, https://matplotlib.org/</dc:title>
     </cc:Agent>
    </dc:creator>
   </cc:Work>
  </rdf:RDF>
 </metadata>
 <defs>
  <style type="text/css">*{stroke-linecap:butt;stroke-linejoin:round;}</style>
 </defs>
 <g id="figure_1">
  <g id="patch_1">
   <path d="M 0 360 
L 864 360 
L 864 0 
L 0 0 
z
" style="fill:none;"/>
  </g>
  <g id="axes_1">
   <g id="patch_2">
    <path d="M 108 108 
L 412.363636 108 
L 412.363636 43.2 
L 108 43.2 
z
" style="fill:#ffffff;"/>
   </g>
   <g id="patch_3">
    <path clip-path="url(#pd48a9d8e82)" d="M 111.381818 108 
L 138.436364 108 
L 138.436364 58.90752 
L 111.381818 58.90752 
z
" style="fill:#3274a1;"/>
   </g>
   <g id="patch_4">
    <path clip-path="url(#pd48a9d8e82)" d="M 145.2 108 
L 172.254545 108 
L 172.254545 56.21832 
L 145.2 56.21832 
z
" style="fill:#e1812c;"/>
   </g>
   <g id="patch_5">
    <path clip-path="url(#pd48a9d8e82)" d="M 179.018182 108 
L 206.072727 108 
L 206.072727 107.490672 
L 179.018182 107.490672 
z
" style="fill:#3a923a;"/>
   </g>
   <g id="patch_6">
    <path clip-path="url(#pd48a9d8e82)" d="M 212.836364 108 
L 239.890909 108 
L 239.890909 104.74056 
L 212.836364 104.74056 
z
" style="fill:#c03d3e;"/>
   </g>
   <g id="patch_7">
    <path clip-path="url(#pd48a9d8e82)" d="M 246.654545 108 
L 273.709091 108 
L 273.709091 104.774256 
L 246.654545 104.774256 
z
" style="fill:#9372b2;"/>
   </g>
   <g id="patch_8">
    <path clip-path="url(#pd48a9d8e82)" d="M 280.472727 108 
L 307.527273 108 
L 307.527273 107.103168 
L 280.472727 107.103168 
z
" style="fill:#845b53;"/>
   </g>
   <g id="patch_9">
    <path clip-path="url(#pd48a9d8e82)" d="M 314.290909 108 
L 341.345455 108 
L 341.345455 107.642304 
L 314.290909 107.642304 
z
" style="fill:#d684bd;"/>
   </g>
   <g id="patch_10">
    <path clip-path="url(#pd48a9d8e82)" d="M 348.109091 108 
L 375.163636 108 
L 375.163636 107.983152 
L 348.109091 107.983152 
z
" style="fill:#7f7f7f;"/>
   </g>
   <g id="patch_11">
    <path clip-path="url(#pd48a9d8e82)" d="M 381.927273 108 
L 408.981818 108 
L 408.981818 107.997408 
L 381.927273 107.997408 
z
" style="fill:#a9aa35;"/>
   </g>
   <g id="matplotlib.axis_1">
    <g id="xtick_1">
     <g id="line2d_1">
      <defs>
       <path d="M 0 0 
L 0 3.5 
" id="me745c54156" style="stroke:#000000;stroke-width:0.8;"/>
      </defs>
      <g>
       <use style="stroke:#000000;stroke-width:0.8;" x="124.909091" xlink:href="#me745c54156" y="108"/>
      </g>
     </g>
     <g id="text_1">
      <!-- SOCIEDAD COMERCIAL/INDUSTRIAL -->
      <g transform="translate(127.668466 292.896875)rotate(-90)scale(0.1 -0.1)">
       <defs>
        <path d="M 3425 4513 
L 3425 3897 
Q 3066 4069 2747 4153 
Q 2428 4238 2131 4238 
Q 1616 4238 1336 4038 
Q 1056 3838 1056 3469 
Q 1056 3159 1242 3001 
Q 1428 2844 1947 2747 
L 2328 2669 
Q 3034 2534 3370 2195 
Q 3706 1856 3706 1288 
Q 3706 609 3251 259 
Q 2797 -91 1919 -91 
Q 1588 -91 1214 -16 
Q 841 59 441 206 
L 441 856 
Q 825 641 1194 531 
Q 1563 422 1919 422 
Q 2459 422 2753 634 
Q 3047 847 3047 1241 
Q 3047 1584 2836 1778 
Q 2625 1972 2144 2069 
L 1759 2144 
Q 1053 2284 737 2584 
Q 422 2884 422 3419 
Q 422 4038 858 4394 
Q 1294 4750 2059 4750 
Q 2388 4750 2728 4690 
Q 3069 4631 3425 4513 
z
" id="DejaVuSans-53" transform="scale(0.015625)"/>
        <path d="M 2522 4238 
Q 1834 4238 1429 3725 
Q 1025 3213 1025 2328 
Q 1025 1447 1429 934 
Q 1834 422 2522 422 
Q 3209 422 3611 934 
Q 4013 1447 4013 2328 
Q 4013 3213 3611 3725 
Q 3209 4238 2522 4238 
z
M 2522 4750 
Q 3503 4750 4090 4092 
Q 4678 3434 4678 2328 
Q 4678 1225 4090 567 
Q 3503 -91 2522 -91 
Q 1538 -91 948 565 
Q 359 1222 359 2328 
Q 359 3434 948 4092 
Q 1538 4750 2522 4750 
z
" id="DejaVuSans-4f" transform="scale(0.015625)"/>
        <path d="M 4122 4306 
L 4122 3641 
Q 3803 3938 3442 4084 
Q 3081 4231 2675 4231 
Q 1875 4231 1450 3742 
Q 1025 3253 1025 2328 
Q 1025 1406 1450 917 
Q 1875 428 2675 428 
Q 3081 428 3442 575 
Q 3803 722 4122 1019 
L 4122 359 
Q 3791 134 3420 21 
Q 3050 -91 2638 -91 
Q 1578 -91 968 557 
Q 359 1206 359 2328 
Q 359 3453 968 4101 
Q 1578 4750 2638 4750 
Q 3056 4750 3426 4639 
Q 3797 4528 4122 4306 
z
" id="DejaVuSans-43" transform="scale(0.015625)"/>
        <path d="M 628 4666 
L 1259 4666 
L 1259 0 
L 628 0 
L 628 4666 
z
" id="DejaVuSans-49" transform="scale(0.015625)"/>
        <path d="M 628 4666 
L 3578 4666 
L 3578 4134 
L 1259 4134 
L 1259 2753 
L 3481 2753 
L 3481 2222 
L 1259 2222 
L 1259 531 
L 3634 531 
L 3634 0 
L 628 0 
L 628 4666 
z
" id="DejaVuSans-45" transform="scale(0.015625)"/>
        <path d="M 1259 4147 
L 1259 519 
L 2022 519 
Q 2988 519 3436 956 
Q 3884 1394 3884 2338 
Q 3884 3275 3436 3711 
Q 2988 4147 2022 4147 
L 1259 4147 
z
M 628 4666 
L 1925 4666 
Q 3281 4666 3915 4102 
Q 4550 3538 4550 2338 
Q 4550 1131 3912 565 
Q 3275 0 1925 0 
L 628 0 
L 628 4666 
z
" id="DejaVuSans-44" transform="scale(0.015625)"/>
        <path d="M 2188 4044 
L 1331 1722 
L 3047 1722 
L 2188 4044 
z
M 1831 4666 
L 2547 4666 
L 4325 0 
L 3669 0 
L 3244 1197 
L 1141 1197 
L 716 0 
L 50 0 
L 1831 4666 
z
" id="DejaVuSans-41" transform="scale(0.015625)"/>
        <path id="DejaVuSans-20" transform="scale(0.015625)"/>
        <path d="M 628 4666 
L 1569 4666 
L 2759 1491 
L 3956 4666 
L 4897 4666 
L 4897 0 
L 4281 0 
L 4281 4097 
L 3078 897 
L 2444 897 
L 1241 4097 
L 1241 0 
L 628 0 
L 628 4666 
z
" id="DejaVuSans-4d" transform="scale(0.015625)"/>
        <path d="M 2841 2188 
Q 3044 2119 3236 1894 
Q 3428 1669 3622 1275 
L 4263 0 
L 3584 0 
L 2988 1197 
Q 2756 1666 2539 1819 
Q 2322 1972 1947 1972 
L 1259 1972 
L 1259 0 
L 628 0 
L 628 4666 
L 2053 4666 
Q 2853 4666 3247 4331 
Q 3641 3997 3641 3322 
Q 3641 2881 3436 2590 
Q 3231 2300 2841 2188 
z
M 1259 4147 
L 1259 2491 
L 2053 2491 
Q 2509 2491 2742 2702 
Q 2975 2913 2975 3322 
Q 2975 3731 2742 3939 
Q 2509 4147 2053 4147 
L 1259 4147 
z
" id="DejaVuSans-52" transform="scale(0.015625)"/>
        <path d="M 628 4666 
L 1259 4666 
L 1259 531 
L 3531 531 
L 3531 0 
L 628 0 
L 628 4666 
z
" id="DejaVuSans-4c" transform="scale(0.015625)"/>
        <path d="M 1625 4666 
L 2156 4666 
L 531 -594 
L 0 -594 
L 1625 4666 
z
" id="DejaVuSans-2f" transform="scale(0.015625)"/>
        <path d="M 628 4666 
L 1478 4666 
L 3547 763 
L 3547 4666 
L 4159 4666 
L 4159 0 
L 3309 0 
L 1241 3903 
L 1241 0 
L 628 0 
L 628 4666 
z
" id="DejaVuSans-4e" transform="scale(0.015625)"/>
        <path d="M 556 4666 
L 1191 4666 
L 1191 1831 
Q 1191 1081 1462 751 
Q 1734 422 2344 422 
Q 2950 422 3222 751 
Q 3494 1081 3494 1831 
L 3494 4666 
L 4128 4666 
L 4128 1753 
Q 4128 841 3676 375 
Q 3225 -91 2344 -91 
Q 1459 -91 1007 375 
Q 556 841 556 1753 
L 556 4666 
z
" id="DejaVuSans-55" transform="scale(0.015625)"/>
        <path d="M -19 4666 
L 3928 4666 
L 3928 4134 
L 2272 4134 
L 2272 0 
L 1638 0 
L 1638 4134 
L -19 4134 
L -19 4666 
z
" id="DejaVuSans-54" transform="scale(0.015625)"/>
       </defs>
       <use xlink:href="#DejaVuSans-53"/>
       <use x="63.476562" xlink:href="#DejaVuSans-4f"/>
       <use x="142.1875" xlink:href="#DejaVuSans-43"/>
       <use x="212.011719" xlink:href="#DejaVuSans-49"/>
       <use x="241.503906" xlink:href="#DejaVuSans-45"/>
       <use x="304.6875" xlink:href="#DejaVuSans-44"/>
       <use x="379.939453" xlink:href="#DejaVuSans-41"/>
       <use x="448.347656" xlink:href="#DejaVuSans-44"/>
       <use x="525.349609" xlink:href="#DejaVuSans-20"/>
       <use x="557.136719" xlink:href="#DejaVuSans-43"/>
       <use x="626.960938" xlink:href="#DejaVuSans-4f"/>
       <use x="705.671875" xlink:href="#DejaVuSans-4d"/>
       <use x="791.951172" xlink:href="#DejaVuSans-45"/>
       <use x="855.134766" xlink:href="#DejaVuSans-52"/>
       <use x="919.617188" xlink:href="#DejaVuSans-43"/>
       <use x="989.441406" xlink:href="#DejaVuSans-49"/>
       <use x="1018.933594" xlink:href="#DejaVuSans-41"/>
       <use x="1087.341797" xlink:href="#DejaVuSans-4c"/>
       <use x="1143.054688" xlink:href="#DejaVuSans-2f"/>
       <use x="1176.746094" xlink:href="#DejaVuSans-49"/>
       <use x="1206.238281" xlink:href="#DejaVuSans-4e"/>
       <use x="1281.042969" xlink:href="#DejaVuSans-44"/>
       <use x="1358.044922" xlink:href="#DejaVuSans-55"/>
       <use x="1431.238281" xlink:href="#DejaVuSans-53"/>
       <use x="1494.714844" xlink:href="#DejaVuSans-54"/>
       <use x="1555.798828" xlink:href="#DejaVuSans-52"/>
       <use x="1625.28125" xlink:href="#DejaVuSans-49"/>
       <use x="1654.773438" xlink:href="#DejaVuSans-41"/>
       <use x="1723.181641" xlink:href="#DejaVuSans-4c"/>
      </g>
     </g>
    </g>
    <g id="xtick_2">
     <g id="line2d_2">
      <g>
       <use style="stroke:#000000;stroke-width:0.8;" x="158.727273" xlink:href="#me745c54156" y="108"/>
      </g>
     </g>
     <g id="text_2">
      <!-- EMPRESARIO INDIVIDUAL -->
      <g transform="translate(161.486648 241.871875)rotate(-90)scale(0.1 -0.1)">
       <defs>
        <path d="M 1259 4147 
L 1259 2394 
L 2053 2394 
Q 2494 2394 2734 2622 
Q 2975 2850 2975 3272 
Q 2975 3691 2734 3919 
Q 2494 4147 2053 4147 
L 1259 4147 
z
M 628 4666 
L 2053 4666 
Q 2838 4666 3239 4311 
Q 3641 3956 3641 3272 
Q 3641 2581 3239 2228 
Q 2838 1875 2053 1875 
L 1259 1875 
L 1259 0 
L 628 0 
L 628 4666 
z
" id="DejaVuSans-50" transform="scale(0.015625)"/>
        <path d="M 1831 0 
L 50 4666 
L 709 4666 
L 2188 738 
L 3669 4666 
L 4325 4666 
L 2547 0 
L 1831 0 
z
" id="DejaVuSans-56" transform="scale(0.015625)"/>
       </defs>
       <use xlink:href="#DejaVuSans-45"/>
       <use x="63.183594" xlink:href="#DejaVuSans-4d"/>
       <use x="149.462891" xlink:href="#DejaVuSans-50"/>
       <use x="209.765625" xlink:href="#DejaVuSans-52"/>
       <use x="279.248047" xlink:href="#DejaVuSans-45"/>
       <use x="342.431641" xlink:href="#DejaVuSans-53"/>
       <use x="407.783203" xlink:href="#DejaVuSans-41"/>
       <use x="476.191406" xlink:href="#DejaVuSans-52"/>
       <use x="545.673828" xlink:href="#DejaVuSans-49"/>
       <use x="575.166016" xlink:href="#DejaVuSans-4f"/>
       <use x="653.876953" xlink:href="#DejaVuSans-20"/>
       <use x="685.664062" xlink:href="#DejaVuSans-49"/>
       <use x="715.15625" xlink:href="#DejaVuSans-4e"/>
       <use x="789.960938" xlink:href="#DejaVuSans-44"/>
       <use x="866.962891" xlink:href="#DejaVuSans-49"/>
       <use x="896.455078" xlink:href="#DejaVuSans-56"/>
       <use x="964.863281" xlink:href="#DejaVuSans-49"/>
       <use x="994.355469" xlink:href="#DejaVuSans-44"/>
       <use x="1071.357422" xlink:href="#DejaVuSans-55"/>
       <use x="1144.550781" xlink:href="#DejaVuSans-41"/>
       <use x="1212.958984" xlink:href="#DejaVuSans-4c"/>
      </g>
     </g>
    </g>
    <g id="xtick_3">
     <g id="line2d_3">
      <g>
       <use style="stroke:#000000;stroke-width:0.8;" x="192.545455" xlink:href="#me745c54156" y="108"/>
      </g>
     </g>
     <g id="text_3">
      <!-- HOLDING -->
      <g transform="translate(195.30483 161.84375)rotate(-90)scale(0.1 -0.1)">
       <defs>
        <path d="M 628 4666 
L 1259 4666 
L 1259 2753 
L 3553 2753 
L 3553 4666 
L 4184 4666 
L 4184 0 
L 3553 0 
L 3553 2222 
L 1259 2222 
L 1259 0 
L 628 0 
L 628 4666 
z
" id="DejaVuSans-48" transform="scale(0.015625)"/>
        <path d="M 3809 666 
L 3809 1919 
L 2778 1919 
L 2778 2438 
L 4434 2438 
L 4434 434 
Q 4069 175 3628 42 
Q 3188 -91 2688 -91 
Q 1594 -91 976 548 
Q 359 1188 359 2328 
Q 359 3472 976 4111 
Q 1594 4750 2688 4750 
Q 3144 4750 3555 4637 
Q 3966 4525 4313 4306 
L 4313 3634 
Q 3963 3931 3569 4081 
Q 3175 4231 2741 4231 
Q 1884 4231 1454 3753 
Q 1025 3275 1025 2328 
Q 1025 1384 1454 906 
Q 1884 428 2741 428 
Q 3075 428 3337 486 
Q 3600 544 3809 666 
z
" id="DejaVuSans-47" transform="scale(0.015625)"/>
       </defs>
       <use xlink:href="#DejaVuSans-48"/>
       <use x="75.195312" xlink:href="#DejaVuSans-4f"/>
       <use x="153.90625" xlink:href="#DejaVuSans-4c"/>
       <use x="209.619141" xlink:href="#DejaVuSans-44"/>
       <use x="286.621094" xlink:href="#DejaVuSans-49"/>
       <use x="316.113281" xlink:href="#DejaVuSans-4e"/>
       <use x="390.917969" xlink:href="#DejaVuSans-47"/>
      </g>
     </g>
    </g>
    <g id="xtick_4">
     <g id="line2d_4">
      <g>
       <use style="stroke:#000000;stroke-width:0.8;" x="226.363636" xlink:href="#me745c54156" y="108"/>
      </g>
     </g>
     <g id="text_4">
      <!-- ENTIDAD FINANCIERA O DE SEGUROS -->
      <g transform="translate(229.123011 303.575)rotate(-90)scale(0.1 -0.1)">
       <defs>
        <path d="M 628 4666 
L 3309 4666 
L 3309 4134 
L 1259 4134 
L 1259 2759 
L 3109 2759 
L 3109 2228 
L 1259 2228 
L 1259 0 
L 628 0 
L 628 4666 
z
" id="DejaVuSans-46" transform="scale(0.015625)"/>
       </defs>
       <use xlink:href="#DejaVuSans-45"/>
       <use x="63.183594" xlink:href="#DejaVuSans-4e"/>
       <use x="137.988281" xlink:href="#DejaVuSans-54"/>
       <use x="199.072266" xlink:href="#DejaVuSans-49"/>
       <use x="228.564453" xlink:href="#DejaVuSans-44"/>
       <use x="303.816406" xlink:href="#DejaVuSans-41"/>
       <use x="372.224609" xlink:href="#DejaVuSans-44"/>
       <use x="449.226562" xlink:href="#DejaVuSans-20"/>
       <use x="481.013672" xlink:href="#DejaVuSans-46"/>
       <use x="538.533203" xlink:href="#DejaVuSans-49"/>
       <use x="568.025391" xlink:href="#DejaVuSans-4e"/>
       <use x="642.830078" xlink:href="#DejaVuSans-41"/>
       <use x="711.238281" xlink:href="#DejaVuSans-4e"/>
       <use x="786.042969" xlink:href="#DejaVuSans-43"/>
       <use x="855.867188" xlink:href="#DejaVuSans-49"/>
       <use x="885.359375" xlink:href="#DejaVuSans-45"/>
       <use x="948.542969" xlink:href="#DejaVuSans-52"/>
       <use x="1014.025391" xlink:href="#DejaVuSans-41"/>
       <use x="1082.433594" xlink:href="#DejaVuSans-20"/>
       <use x="1114.220703" xlink:href="#DejaVuSans-4f"/>
       <use x="1192.931641" xlink:href="#DejaVuSans-20"/>
       <use x="1224.71875" xlink:href="#DejaVuSans-44"/>
       <use x="1301.720703" xlink:href="#DejaVuSans-45"/>
       <use x="1364.904297" xlink:href="#DejaVuSans-20"/>
       <use x="1396.691406" xlink:href="#DejaVuSans-53"/>
       <use x="1460.167969" xlink:href="#DejaVuSans-45"/>
       <use x="1523.351562" xlink:href="#DejaVuSans-47"/>
       <use x="1600.841797" xlink:href="#DejaVuSans-55"/>
       <use x="1674.035156" xlink:href="#DejaVuSans-52"/>
       <use x="1743.517578" xlink:href="#DejaVuSans-4f"/>
       <use x="1822.228516" xlink:href="#DejaVuSans-53"/>
      </g>
     </g>
    </g>
    <g id="xtick_5">
     <g id="line2d_5">
      <g>
       <use style="stroke:#000000;stroke-width:0.8;" x="260.181818" xlink:href="#me745c54156" y="108"/>
      </g>
     </g>
     <g id="text_5">
      <!-- ENTIDAD SIN ANIMO DE LUCRO -->
      <g transform="translate(262.941193 271.4)rotate(-90)scale(0.1 -0.1)">
       <use xlink:href="#DejaVuSans-45"/>
       <use x="63.183594" xlink:href="#DejaVuSans-4e"/>
       <use x="137.988281" xlink:href="#DejaVuSans-54"/>
       <use x="199.072266" xlink:href="#DejaVuSans-49"/>
       <use x="228.564453" xlink:href="#DejaVuSans-44"/>
       <use x="303.816406" xlink:href="#DejaVuSans-41"/>
       <use x="372.224609" xlink:href="#DejaVuSans-44"/>
       <use x="449.226562" xlink:href="#DejaVuSans-20"/>
       <use x="481.013672" xlink:href="#DejaVuSans-53"/>
       <use x="544.490234" xlink:href="#DejaVuSans-49"/>
       <use x="573.982422" xlink:href="#DejaVuSans-4e"/>
       <use x="648.787109" xlink:href="#DejaVuSans-20"/>
       <use x="680.574219" xlink:href="#DejaVuSans-41"/>
       <use x="748.982422" xlink:href="#DejaVuSans-4e"/>
       <use x="823.787109" xlink:href="#DejaVuSans-49"/>
       <use x="853.279297" xlink:href="#DejaVuSans-4d"/>
       <use x="939.558594" xlink:href="#DejaVuSans-4f"/>
       <use x="1018.269531" xlink:href="#DejaVuSans-20"/>
       <use x="1050.056641" xlink:href="#DejaVuSans-44"/>
       <use x="1127.058594" xlink:href="#DejaVuSans-45"/>
       <use x="1190.242188" xlink:href="#DejaVuSans-20"/>
       <use x="1222.029297" xlink:href="#DejaVuSans-4c"/>
       <use x="1272.742188" xlink:href="#DejaVuSans-55"/>
       <use x="1345.935547" xlink:href="#DejaVuSans-43"/>
       <use x="1415.759766" xlink:href="#DejaVuSans-52"/>
       <use x="1485.242188" xlink:href="#DejaVuSans-4f"/>
      </g>
     </g>
    </g>
    <g id="xtick_6">
     <g id="line2d_6">
      <g>
       <use style="stroke:#000000;stroke-width:0.8;" x="294" xlink:href="#me745c54156" y="108"/>
      </g>
     </g>
     <g id="text_6">
      <!-- ORGANISMO ESTATAL -->
      <g transform="translate(296.759375 222.678125)rotate(-90)scale(0.1 -0.1)">
       <use xlink:href="#DejaVuSans-4f"/>
       <use x="78.710938" xlink:href="#DejaVuSans-52"/>
       <use x="148.193359" xlink:href="#DejaVuSans-47"/>
       <use x="225.683594" xlink:href="#DejaVuSans-41"/>
       <use x="294.091797" xlink:href="#DejaVuSans-4e"/>
       <use x="368.896484" xlink:href="#DejaVuSans-49"/>
       <use x="398.388672" xlink:href="#DejaVuSans-53"/>
       <use x="461.865234" xlink:href="#DejaVuSans-4d"/>
       <use x="548.144531" xlink:href="#DejaVuSans-4f"/>
       <use x="626.855469" xlink:href="#DejaVuSans-20"/>
       <use x="658.642578" xlink:href="#DejaVuSans-45"/>
       <use x="721.826172" xlink:href="#DejaVuSans-53"/>
       <use x="785.302734" xlink:href="#DejaVuSans-54"/>
       <use x="838.636719" xlink:href="#DejaVuSans-41"/>
       <use x="899.294922" xlink:href="#DejaVuSans-54"/>
       <use x="952.628906" xlink:href="#DejaVuSans-41"/>
       <use x="1021.037109" xlink:href="#DejaVuSans-4c"/>
      </g>
     </g>
    </g>
    <g id="xtick_7">
     <g id="line2d_7">
      <g>
       <use style="stroke:#000000;stroke-width:0.8;" x="327.818182" xlink:href="#me745c54156" y="108"/>
      </g>
     </g>
     <g id="text_7">
      <!-- ENTIDAD EXTRANJERA -->
      <g transform="translate(330.577557 225.73125)rotate(-90)scale(0.1 -0.1)">
       <defs>
        <path d="M 403 4666 
L 1081 4666 
L 2241 2931 
L 3406 4666 
L 4084 4666 
L 2584 2425 
L 4184 0 
L 3506 0 
L 2194 1984 
L 872 0 
L 191 0 
L 1856 2491 
L 403 4666 
z
" id="DejaVuSans-58" transform="scale(0.015625)"/>
        <path d="M 628 4666 
L 1259 4666 
L 1259 325 
Q 1259 -519 939 -900 
Q 619 -1281 -91 -1281 
L -331 -1281 
L -331 -750 
L -134 -750 
Q 284 -750 456 -515 
Q 628 -281 628 325 
L 628 4666 
z
" id="DejaVuSans-4a" transform="scale(0.015625)"/>
       </defs>
       <use xlink:href="#DejaVuSans-45"/>
       <use x="63.183594" xlink:href="#DejaVuSans-4e"/>
       <use x="137.988281" xlink:href="#DejaVuSans-54"/>
       <use x="199.072266" xlink:href="#DejaVuSans-49"/>
       <use x="228.564453" xlink:href="#DejaVuSans-44"/>
       <use x="303.816406" xlink:href="#DejaVuSans-41"/>
       <use x="372.224609" xlink:href="#DejaVuSans-44"/>
       <use x="449.226562" xlink:href="#DejaVuSans-20"/>
       <use x="481.013672" xlink:href="#DejaVuSans-45"/>
       <use x="544.197266" xlink:href="#DejaVuSans-58"/>
       <use x="610.953125" xlink:href="#DejaVuSans-54"/>
       <use x="672.037109" xlink:href="#DejaVuSans-52"/>
       <use x="737.519531" xlink:href="#DejaVuSans-41"/>
       <use x="805.927734" xlink:href="#DejaVuSans-4e"/>
       <use x="880.732422" xlink:href="#DejaVuSans-4a"/>
       <use x="910.224609" xlink:href="#DejaVuSans-45"/>
       <use x="973.408203" xlink:href="#DejaVuSans-52"/>
       <use x="1038.890625" xlink:href="#DejaVuSans-41"/>
      </g>
     </g>
    </g>
    <g id="xtick_8">
     <g id="line2d_8">
      <g>
       <use style="stroke:#000000;stroke-width:0.8;" x="361.636364" xlink:href="#me745c54156" y="108"/>
      </g>
     </g>
     <g id="text_8">
      <!-- SOCIEDAD NO COMERCIAL -->
      <g transform="translate(364.395739 247.842188)rotate(-90)scale(0.1 -0.1)">
       <use xlink:href="#DejaVuSans-53"/>
       <use x="63.476562" xlink:href="#DejaVuSans-4f"/>
       <use x="142.1875" xlink:href="#DejaVuSans-43"/>
       <use x="212.011719" xlink:href="#DejaVuSans-49"/>
       <use x="241.503906" xlink:href="#DejaVuSans-45"/>
       <use x="304.6875" xlink:href="#DejaVuSans-44"/>
       <use x="379.939453" xlink:href="#DejaVuSans-41"/>
       <use x="448.347656" xlink:href="#DejaVuSans-44"/>
       <use x="525.349609" xlink:href="#DejaVuSans-20"/>
       <use x="557.136719" xlink:href="#DejaVuSans-4e"/>
       <use x="631.941406" xlink:href="#DejaVuSans-4f"/>
       <use x="710.652344" xlink:href="#DejaVuSans-20"/>
       <use x="742.439453" xlink:href="#DejaVuSans-43"/>
       <use x="812.263672" xlink:href="#DejaVuSans-4f"/>
       <use x="890.974609" xlink:href="#DejaVuSans-4d"/>
       <use x="977.253906" xlink:href="#DejaVuSans-45"/>
       <use x="1040.4375" xlink:href="#DejaVuSans-52"/>
       <use x="1104.919922" xlink:href="#DejaVuSans-43"/>
       <use x="1174.744141" xlink:href="#DejaVuSans-49"/>
       <use x="1204.236328" xlink:href="#DejaVuSans-41"/>
       <use x="1272.644531" xlink:href="#DejaVuSans-4c"/>
      </g>
     </g>
    </g>
    <g id="xtick_9">
     <g id="line2d_9">
      <g>
       <use style="stroke:#000000;stroke-width:0.8;" x="395.454545" xlink:href="#me745c54156" y="108"/>
      </g>
     </g>
     <g id="text_9">
      <!-- INDUSTRIA / COMERCIO -->
      <g transform="translate(398.21392 233.425)rotate(-90)scale(0.1 -0.1)">
       <use xlink:href="#DejaVuSans-49"/>
       <use x="29.492188" xlink:href="#DejaVuSans-4e"/>
       <use x="104.296875" xlink:href="#DejaVuSans-44"/>
       <use x="181.298828" xlink:href="#DejaVuSans-55"/>
       <use x="254.492188" xlink:href="#DejaVuSans-53"/>
       <use x="317.96875" xlink:href="#DejaVuSans-54"/>
       <use x="379.052734" xlink:href="#DejaVuSans-52"/>
       <use x="448.535156" xlink:href="#DejaVuSans-49"/>
       <use x="478.027344" xlink:href="#DejaVuSans-41"/>
       <use x="546.435547" xlink:href="#DejaVuSans-20"/>
       <use x="578.222656" xlink:href="#DejaVuSans-2f"/>
       <use x="611.914062" xlink:href="#DejaVuSans-20"/>
       <use x="643.701172" xlink:href="#DejaVuSans-43"/>
       <use x="713.525391" xlink:href="#DejaVuSans-4f"/>
       <use x="792.236328" xlink:href="#DejaVuSans-4d"/>
       <use x="878.515625" xlink:href="#DejaVuSans-45"/>
       <use x="941.699219" xlink:href="#DejaVuSans-52"/>
       <use x="1006.181641" xlink:href="#DejaVuSans-43"/>
       <use x="1076.005859" xlink:href="#DejaVuSans-49"/>
       <use x="1105.498047" xlink:href="#DejaVuSans-4f"/>
      </g>
     </g>
    </g>
    <g id="text_10">
     <!-- usu_tipo -->
     <g transform="translate(239.156818 315.173438)scale(0.1 -0.1)">
      <defs>
       <path d="M 544 1381 
L 544 3500 
L 1119 3500 
L 1119 1403 
Q 1119 906 1312 657 
Q 1506 409 1894 409 
Q 2359 409 2629 706 
Q 2900 1003 2900 1516 
L 2900 3500 
L 3475 3500 
L 3475 0 
L 2900 0 
L 2900 538 
Q 2691 219 2414 64 
Q 2138 -91 1772 -91 
Q 1169 -91 856 284 
Q 544 659 544 1381 
z
M 1991 3584 
L 1991 3584 
z
" id="DejaVuSans-75" transform="scale(0.015625)"/>
       <path d="M 2834 3397 
L 2834 2853 
Q 2591 2978 2328 3040 
Q 2066 3103 1784 3103 
Q 1356 3103 1142 2972 
Q 928 2841 928 2578 
Q 928 2378 1081 2264 
Q 1234 2150 1697 2047 
L 1894 2003 
Q 2506 1872 2764 1633 
Q 3022 1394 3022 966 
Q 3022 478 2636 193 
Q 2250 -91 1575 -91 
Q 1294 -91 989 -36 
Q 684 19 347 128 
L 347 722 
Q 666 556 975 473 
Q 1284 391 1588 391 
Q 1994 391 2212 530 
Q 2431 669 2431 922 
Q 2431 1156 2273 1281 
Q 2116 1406 1581 1522 
L 1381 1569 
Q 847 1681 609 1914 
Q 372 2147 372 2553 
Q 372 3047 722 3315 
Q 1072 3584 1716 3584 
Q 2034 3584 2315 3537 
Q 2597 3491 2834 3397 
z
" id="DejaVuSans-73" transform="scale(0.015625)"/>
       <path d="M 3263 -1063 
L 3263 -1509 
L -63 -1509 
L -63 -1063 
L 3263 -1063 
z
" id="DejaVuSans-5f" transform="scale(0.015625)"/>
       <path d="M 1172 4494 
L 1172 3500 
L 2356 3500 
L 2356 3053 
L 1172 3053 
L 1172 1153 
Q 1172 725 1289 603 
Q 1406 481 1766 481 
L 2356 481 
L 2356 0 
L 1766 0 
Q 1100 0 847 248 
Q 594 497 594 1153 
L 594 3053 
L 172 3053 
L 172 3500 
L 594 3500 
L 594 4494 
L 1172 4494 
z
" id="DejaVuSans-74" transform="scale(0.015625)"/>
       <path d="M 603 3500 
L 1178 3500 
L 1178 0 
L 603 0 
L 603 3500 
z
M 603 4863 
L 1178 4863 
L 1178 4134 
L 603 4134 
L 603 4863 
z
" id="DejaVuSans-69" transform="scale(0.015625)"/>
       <path d="M 1159 525 
L 1159 -1331 
L 581 -1331 
L 581 3500 
L 1159 3500 
L 1159 2969 
Q 1341 3281 1617 3432 
Q 1894 3584 2278 3584 
Q 2916 3584 3314 3078 
Q 3713 2572 3713 1747 
Q 3713 922 3314 415 
Q 2916 -91 2278 -91 
Q 1894 -91 1617 61 
Q 1341 213 1159 525 
z
M 3116 1747 
Q 3116 2381 2855 2742 
Q 2594 3103 2138 3103 
Q 1681 3103 1420 2742 
Q 1159 2381 1159 1747 
Q 1159 1113 1420 752 
Q 1681 391 2138 391 
Q 2594 391 2855 752 
Q 3116 1113 3116 1747 
z
" id="DejaVuSans-70" transform="scale(0.015625)"/>
       <path d="M 1959 3097 
Q 1497 3097 1228 2736 
Q 959 2375 959 1747 
Q 959 1119 1226 758 
Q 1494 397 1959 397 
Q 2419 397 2687 759 
Q 2956 1122 2956 1747 
Q 2956 2369 2687 2733 
Q 2419 3097 1959 3097 
z
M 1959 3584 
Q 2709 3584 3137 3096 
Q 3566 2609 3566 1747 
Q 3566 888 3137 398 
Q 2709 -91 1959 -91 
Q 1206 -91 779 398 
Q 353 888 353 1747 
Q 353 2609 779 3096 
Q 1206 3584 1959 3584 
z
" id="DejaVuSans-6f" transform="scale(0.015625)"/>
      </defs>
      <use xlink:href="#DejaVuSans-75"/>
      <use x="63.378906" xlink:href="#DejaVuSans-73"/>
      <use x="115.478516" xlink:href="#DejaVuSans-75"/>
      <use x="178.857422" xlink:href="#DejaVuSans-5f"/>
      <use x="228.857422" xlink:href="#DejaVuSans-74"/>
      <use x="268.066406" xlink:href="#DejaVuSans-69"/>
      <use x="295.849609" xlink:href="#DejaVuSans-70"/>
      <use x="359.326172" xlink:href="#DejaVuSans-6f"/>
     </g>
    </g>
   </g>
   <g id="matplotlib.axis_2">
    <g id="ytick_1">
     <g id="line2d_10">
      <defs>
       <path d="M 0 0 
L -3.5 0 
" id="m1641839119" style="stroke:#000000;stroke-width:0.8;"/>
      </defs>
      <g>
       <use style="stroke:#000000;stroke-width:0.8;" x="108" xlink:href="#m1641839119" y="108"/>
      </g>
     </g>
     <g id="text_11">
      <!-- 0 -->
      <g transform="translate(98.920312 110.563281)rotate(-90)scale(0.1 -0.1)">
       <defs>
        <path d="M 2034 4250 
Q 1547 4250 1301 3770 
Q 1056 3291 1056 2328 
Q 1056 1369 1301 889 
Q 1547 409 2034 409 
Q 2525 409 2770 889 
Q 3016 1369 3016 2328 
Q 3016 3291 2770 3770 
Q 2525 4250 2034 4250 
z
M 2034 4750 
Q 2819 4750 3233 4129 
Q 3647 3509 3647 2328 
Q 3647 1150 3233 529 
Q 2819 -91 2034 -91 
Q 1250 -91 836 529 
Q 422 1150 422 2328 
Q 422 3509 836 4129 
Q 1250 4750 2034 4750 
z
" id="DejaVuSans-30" transform="scale(0.015625)"/>
       </defs>
       <use xlink:href="#DejaVuSans-30"/>
      </g>
     </g>
    </g>
    <g id="ytick_2">
     <g id="line2d_11">
      <g>
       <use style="stroke:#000000;stroke-width:0.8;" x="108" xlink:href="#m1641839119" y="82.08"/>
      </g>
     </g>
     <g id="text_12">
      <!-- 20000 -->
      <g transform="translate(98.920312 110.093281)rotate(-90)scale(0.1 -0.1)">
       <defs>
        <path d="M 1228 531 
L 3431 531 
L 3431 0 
L 469 0 
L 469 531 
Q 828 903 1448 1529 
Q 2069 2156 2228 2338 
Q 2531 2678 2651 2914 
Q 2772 3150 2772 3378 
Q 2772 3750 2511 3984 
Q 2250 4219 1831 4219 
Q 1534 4219 1204 4116 
Q 875 4013 500 3803 
L 500 4441 
Q 881 4594 1212 4672 
Q 1544 4750 1819 4750 
Q 2544 4750 2975 4387 
Q 3406 4025 3406 3419 
Q 3406 3131 3298 2873 
Q 3191 2616 2906 2266 
Q 2828 2175 2409 1742 
Q 1991 1309 1228 531 
z
" id="DejaVuSans-32" transform="scale(0.015625)"/>
       </defs>
       <use xlink:href="#DejaVuSans-32"/>
       <use x="63.623047" xlink:href="#DejaVuSans-30"/>
       <use x="127.246094" xlink:href="#DejaVuSans-30"/>
       <use x="190.869141" xlink:href="#DejaVuSans-30"/>
       <use x="254.492188" xlink:href="#DejaVuSans-30"/>
      </g>
     </g>
    </g>
    <g id="ytick_3">
     <g id="line2d_12">
      <g>
       <use style="stroke:#000000;stroke-width:0.8;" x="108" xlink:href="#m1641839119" y="56.16"/>
      </g>
     </g>
     <g id="text_13">
      <!-- 40000 -->
      <g transform="translate(98.920312 84.173281)rotate(-90)scale(0.1 -0.1)">
       <defs>
        <path d="M 2419 4116 
L 825 1625 
L 2419 1625 
L 2419 4116 
z
M 2253 4666 
L 3047 4666 
L 3047 1625 
L 3713 1625 
L 3713 1100 
L 3047 1100 
L 3047 0 
L 2419 0 
L 2419 1100 
L 313 1100 
L 313 1709 
L 2253 4666 
z
" id="DejaVuSans-34" transform="scale(0.015625)"/>
       </defs>
       <use xlink:href="#DejaVuSans-34"/>
       <use x="63.623047" xlink:href="#DejaVuSans-30"/>
       <use x="127.246094" xlink:href="#DejaVuSans-30"/>
       <use x="190.869141" xlink:href="#DejaVuSans-30"/>
       <use x="254.492188" xlink:href="#DejaVuSans-30"/>
      </g>
     </g>
    </g>
    <g id="text_14">
     <!-- count -->
     <g transform="translate(85.242187 89.70625)rotate(-90)scale(0.1 -0.1)">
      <defs>
       <path d="M 3122 3366 
L 3122 2828 
Q 2878 2963 2633 3030 
Q 2388 3097 2138 3097 
Q 1578 3097 1268 2742 
Q 959 2388 959 1747 
Q 959 1106 1268 751 
Q 1578 397 2138 397 
Q 2388 397 2633 464 
Q 2878 531 3122 666 
L 3122 134 
Q 2881 22 2623 -34 
Q 2366 -91 2075 -91 
Q 1284 -91 818 406 
Q 353 903 353 1747 
Q 353 2603 823 3093 
Q 1294 3584 2113 3584 
Q 2378 3584 2631 3529 
Q 2884 3475 3122 3366 
z
" id="DejaVuSans-63" transform="scale(0.015625)"/>
       <path d="M 3513 2113 
L 3513 0 
L 2938 0 
L 2938 2094 
Q 2938 2591 2744 2837 
Q 2550 3084 2163 3084 
Q 1697 3084 1428 2787 
Q 1159 2491 1159 1978 
L 1159 0 
L 581 0 
L 581 3500 
L 1159 3500 
L 1159 2956 
Q 1366 3272 1645 3428 
Q 1925 3584 2291 3584 
Q 2894 3584 3203 3211 
Q 3513 2838 3513 2113 
z
" id="DejaVuSans-6e" transform="scale(0.015625)"/>
      </defs>
      <use xlink:href="#DejaVuSans-63"/>
      <use x="54.980469" xlink:href="#DejaVuSans-6f"/>
      <use x="116.162109" xlink:href="#DejaVuSans-75"/>
      <use x="179.541016" xlink:href="#DejaVuSans-6e"/>
      <use x="242.919922" xlink:href="#DejaVuSans-74"/>
     </g>
    </g>
   </g>
   <g id="patch_12">
    <path d="M 108 108 
L 108 43.2 
" style="fill:none;stroke:#000000;stroke-linecap:square;stroke-linejoin:miter;stroke-width:0.8;"/>
   </g>
   <g id="patch_13">
    <path d="M 412.363636 108 
L 412.363636 43.2 
" style="fill:none;stroke:#000000;stroke-linecap:square;stroke-linejoin:miter;stroke-width:0.8;"/>
   </g>
   <g id="patch_14">
    <path d="M 108 108 
L 412.363636 108 
" style="fill:none;stroke:#000000;stroke-linecap:square;stroke-linejoin:miter;stroke-width:0.8;"/>
   </g>
   <g id="patch_15">
    <path d="M 108 43.2 
L 412.363636 43.2 
" style="fill:none;stroke:#000000;stroke-linecap:square;stroke-linejoin:miter;stroke-width:0.8;"/>
   </g>
   <g id="text_15">
    <!-- 37880 -->
    <g transform="translate(109.002841 59.074895)scale(0.1 -0.1)">
     <defs>
      <path d="M 2597 2516 
Q 3050 2419 3304 2112 
Q 3559 1806 3559 1356 
Q 3559 666 3084 287 
Q 2609 -91 1734 -91 
Q 1441 -91 1130 -33 
Q 819 25 488 141 
L 488 750 
Q 750 597 1062 519 
Q 1375 441 1716 441 
Q 2309 441 2620 675 
Q 2931 909 2931 1356 
Q 2931 1769 2642 2001 
Q 2353 2234 1838 2234 
L 1294 2234 
L 1294 2753 
L 1863 2753 
Q 2328 2753 2575 2939 
Q 2822 3125 2822 3475 
Q 2822 3834 2567 4026 
Q 2313 4219 1838 4219 
Q 1578 4219 1281 4162 
Q 984 4106 628 3988 
L 628 4550 
Q 988 4650 1302 4700 
Q 1616 4750 1894 4750 
Q 2613 4750 3031 4423 
Q 3450 4097 3450 3541 
Q 3450 3153 3228 2886 
Q 3006 2619 2597 2516 
z
" id="DejaVuSans-33" transform="scale(0.015625)"/>
      <path d="M 525 4666 
L 3525 4666 
L 3525 4397 
L 1831 0 
L 1172 0 
L 2766 4134 
L 525 4134 
L 525 4666 
z
" id="DejaVuSans-37" transform="scale(0.015625)"/>
      <path d="M 2034 2216 
Q 1584 2216 1326 1975 
Q 1069 1734 1069 1313 
Q 1069 891 1326 650 
Q 1584 409 2034 409 
Q 2484 409 2743 651 
Q 3003 894 3003 1313 
Q 3003 1734 2745 1975 
Q 2488 2216 2034 2216 
z
M 1403 2484 
Q 997 2584 770 2862 
Q 544 3141 544 3541 
Q 544 4100 942 4425 
Q 1341 4750 2034 4750 
Q 2731 4750 3128 4425 
Q 3525 4100 3525 3541 
Q 3525 3141 3298 2862 
Q 3072 2584 2669 2484 
Q 3125 2378 3379 2068 
Q 3634 1759 3634 1313 
Q 3634 634 3220 271 
Q 2806 -91 2034 -91 
Q 1263 -91 848 271 
Q 434 634 434 1313 
Q 434 1759 690 2068 
Q 947 2378 1403 2484 
z
M 1172 3481 
Q 1172 3119 1398 2916 
Q 1625 2713 2034 2713 
Q 2441 2713 2670 2916 
Q 2900 3119 2900 3481 
Q 2900 3844 2670 4047 
Q 2441 4250 2034 4250 
Q 1625 4250 1398 4047 
Q 1172 3844 1172 3481 
z
" id="DejaVuSans-38" transform="scale(0.015625)"/>
     </defs>
     <use xlink:href="#DejaVuSans-33"/>
     <use x="63.623047" xlink:href="#DejaVuSans-37"/>
     <use x="127.246094" xlink:href="#DejaVuSans-38"/>
     <use x="190.869141" xlink:href="#DejaVuSans-38"/>
     <use x="254.492188" xlink:href="#DejaVuSans-30"/>
    </g>
   </g>
   <g id="text_16">
    <!-- 39955 -->
    <g transform="translate(142.821023 56.385695)scale(0.1 -0.1)">
     <defs>
      <path d="M 703 97 
L 703 672 
Q 941 559 1184 500 
Q 1428 441 1663 441 
Q 2288 441 2617 861 
Q 2947 1281 2994 2138 
Q 2813 1869 2534 1725 
Q 2256 1581 1919 1581 
Q 1219 1581 811 2004 
Q 403 2428 403 3163 
Q 403 3881 828 4315 
Q 1253 4750 1959 4750 
Q 2769 4750 3195 4129 
Q 3622 3509 3622 2328 
Q 3622 1225 3098 567 
Q 2575 -91 1691 -91 
Q 1453 -91 1209 -44 
Q 966 3 703 97 
z
M 1959 2075 
Q 2384 2075 2632 2365 
Q 2881 2656 2881 3163 
Q 2881 3666 2632 3958 
Q 2384 4250 1959 4250 
Q 1534 4250 1286 3958 
Q 1038 3666 1038 3163 
Q 1038 2656 1286 2365 
Q 1534 2075 1959 2075 
z
" id="DejaVuSans-39" transform="scale(0.015625)"/>
      <path d="M 691 4666 
L 3169 4666 
L 3169 4134 
L 1269 4134 
L 1269 2991 
Q 1406 3038 1543 3061 
Q 1681 3084 1819 3084 
Q 2600 3084 3056 2656 
Q 3513 2228 3513 1497 
Q 3513 744 3044 326 
Q 2575 -91 1722 -91 
Q 1428 -91 1123 -41 
Q 819 9 494 109 
L 494 744 
Q 775 591 1075 516 
Q 1375 441 1709 441 
Q 2250 441 2565 725 
Q 2881 1009 2881 1497 
Q 2881 1984 2565 2268 
Q 2250 2553 1709 2553 
Q 1456 2553 1204 2497 
Q 953 2441 691 2322 
L 691 4666 
z
" id="DejaVuSans-35" transform="scale(0.015625)"/>
     </defs>
     <use xlink:href="#DejaVuSans-33"/>
     <use x="63.623047" xlink:href="#DejaVuSans-39"/>
     <use x="127.246094" xlink:href="#DejaVuSans-39"/>
     <use x="190.869141" xlink:href="#DejaVuSans-35"/>
     <use x="254.492188" xlink:href="#DejaVuSans-35"/>
    </g>
   </g>
   <g id="text_17">
    <!-- 393 -->
    <g transform="translate(183.001705 107.658047)scale(0.1 -0.1)">
     <use xlink:href="#DejaVuSans-33"/>
     <use x="63.623047" xlink:href="#DejaVuSans-39"/>
     <use x="127.246094" xlink:href="#DejaVuSans-33"/>
    </g>
   </g>
   <g id="text_18">
    <!-- 2515 -->
    <g transform="translate(213.638636 104.907935)scale(0.1 -0.1)">
     <defs>
      <path d="M 794 531 
L 1825 531 
L 1825 4091 
L 703 3866 
L 703 4441 
L 1819 4666 
L 2450 4666 
L 2450 531 
L 3481 531 
L 3481 0 
L 794 0 
L 794 531 
z
" id="DejaVuSans-31" transform="scale(0.015625)"/>
     </defs>
     <use xlink:href="#DejaVuSans-32"/>
     <use x="63.623047" xlink:href="#DejaVuSans-35"/>
     <use x="127.246094" xlink:href="#DejaVuSans-31"/>
     <use x="190.869141" xlink:href="#DejaVuSans-35"/>
    </g>
   </g>
   <g id="text_19">
    <!-- 2489 -->
    <g transform="translate(247.456818 104.941631)scale(0.1 -0.1)">
     <use xlink:href="#DejaVuSans-32"/>
     <use x="63.623047" xlink:href="#DejaVuSans-34"/>
     <use x="127.246094" xlink:href="#DejaVuSans-38"/>
     <use x="190.869141" xlink:href="#DejaVuSans-39"/>
    </g>
   </g>
   <g id="text_20">
    <!-- 692 -->
    <g transform="translate(284.45625 107.270543)scale(0.1 -0.1)">
     <defs>
      <path d="M 2113 2584 
Q 1688 2584 1439 2293 
Q 1191 2003 1191 1497 
Q 1191 994 1439 701 
Q 1688 409 2113 409 
Q 2538 409 2786 701 
Q 3034 994 3034 1497 
Q 3034 2003 2786 2293 
Q 2538 2584 2113 2584 
z
M 3366 4563 
L 3366 3988 
Q 3128 4100 2886 4159 
Q 2644 4219 2406 4219 
Q 1781 4219 1451 3797 
Q 1122 3375 1075 2522 
Q 1259 2794 1537 2939 
Q 1816 3084 2150 3084 
Q 2853 3084 3261 2657 
Q 3669 2231 3669 1497 
Q 3669 778 3244 343 
Q 2819 -91 2113 -91 
Q 1303 -91 875 529 
Q 447 1150 447 2328 
Q 447 3434 972 4092 
Q 1497 4750 2381 4750 
Q 2619 4750 2861 4703 
Q 3103 4656 3366 4563 
z
" id="DejaVuSans-36" transform="scale(0.015625)"/>
     </defs>
     <use xlink:href="#DejaVuSans-36"/>
     <use x="63.623047" xlink:href="#DejaVuSans-39"/>
     <use x="127.246094" xlink:href="#DejaVuSans-32"/>
    </g>
   </g>
   <g id="text_21">
    <!-- 276 -->
    <g transform="translate(318.274432 107.809679)scale(0.1 -0.1)">
     <use xlink:href="#DejaVuSans-32"/>
     <use x="63.623047" xlink:href="#DejaVuSans-37"/>
     <use x="127.246094" xlink:href="#DejaVuSans-36"/>
    </g>
   </g>
   <g id="text_22">
    <!-- 13 -->
    <g transform="translate(355.273864 108.150527)scale(0.1 -0.1)">
     <use xlink:href="#DejaVuSans-31"/>
     <use x="63.623047" xlink:href="#DejaVuSans-33"/>
    </g>
   </g>
   <g id="text_23">
    <!-- 2 -->
    <g transform="translate(392.273295 108.164783)scale(0.1 -0.1)">
     <use xlink:href="#DejaVuSans-32"/>
    </g>
   </g>
   <g id="text_24">
    <!-- Tipo de empresa consultora -->
    <g transform="translate(176.629943 37.2)scale(0.12 -0.12)">
     <defs>
      <path d="M 2906 2969 
L 2906 4863 
L 3481 4863 
L 3481 0 
L 2906 0 
L 2906 525 
Q 2725 213 2448 61 
Q 2172 -91 1784 -91 
Q 1150 -91 751 415 
Q 353 922 353 1747 
Q 353 2572 751 3078 
Q 1150 3584 1784 3584 
Q 2172 3584 2448 3432 
Q 2725 3281 2906 2969 
z
M 947 1747 
Q 947 1113 1208 752 
Q 1469 391 1925 391 
Q 2381 391 2643 752 
Q 2906 1113 2906 1747 
Q 2906 2381 2643 2742 
Q 2381 3103 1925 3103 
Q 1469 3103 1208 2742 
Q 947 2381 947 1747 
z
" id="DejaVuSans-64" transform="scale(0.015625)"/>
      <path d="M 3597 1894 
L 3597 1613 
L 953 1613 
Q 991 1019 1311 708 
Q 1631 397 2203 397 
Q 2534 397 2845 478 
Q 3156 559 3463 722 
L 3463 178 
Q 3153 47 2828 -22 
Q 2503 -91 2169 -91 
Q 1331 -91 842 396 
Q 353 884 353 1716 
Q 353 2575 817 3079 
Q 1281 3584 2069 3584 
Q 2775 3584 3186 3129 
Q 3597 2675 3597 1894 
z
M 3022 2063 
Q 3016 2534 2758 2815 
Q 2500 3097 2075 3097 
Q 1594 3097 1305 2825 
Q 1016 2553 972 2059 
L 3022 2063 
z
" id="DejaVuSans-65" transform="scale(0.015625)"/>
      <path d="M 3328 2828 
Q 3544 3216 3844 3400 
Q 4144 3584 4550 3584 
Q 5097 3584 5394 3201 
Q 5691 2819 5691 2113 
L 5691 0 
L 5113 0 
L 5113 2094 
Q 5113 2597 4934 2840 
Q 4756 3084 4391 3084 
Q 3944 3084 3684 2787 
Q 3425 2491 3425 1978 
L 3425 0 
L 2847 0 
L 2847 2094 
Q 2847 2600 2669 2842 
Q 2491 3084 2119 3084 
Q 1678 3084 1418 2786 
Q 1159 2488 1159 1978 
L 1159 0 
L 581 0 
L 581 3500 
L 1159 3500 
L 1159 2956 
Q 1356 3278 1631 3431 
Q 1906 3584 2284 3584 
Q 2666 3584 2933 3390 
Q 3200 3197 3328 2828 
z
" id="DejaVuSans-6d" transform="scale(0.015625)"/>
      <path d="M 2631 2963 
Q 2534 3019 2420 3045 
Q 2306 3072 2169 3072 
Q 1681 3072 1420 2755 
Q 1159 2438 1159 1844 
L 1159 0 
L 581 0 
L 581 3500 
L 1159 3500 
L 1159 2956 
Q 1341 3275 1631 3429 
Q 1922 3584 2338 3584 
Q 2397 3584 2469 3576 
Q 2541 3569 2628 3553 
L 2631 2963 
z
" id="DejaVuSans-72" transform="scale(0.015625)"/>
      <path d="M 2194 1759 
Q 1497 1759 1228 1600 
Q 959 1441 959 1056 
Q 959 750 1161 570 
Q 1363 391 1709 391 
Q 2188 391 2477 730 
Q 2766 1069 2766 1631 
L 2766 1759 
L 2194 1759 
z
M 3341 1997 
L 3341 0 
L 2766 0 
L 2766 531 
Q 2569 213 2275 61 
Q 1981 -91 1556 -91 
Q 1019 -91 701 211 
Q 384 513 384 1019 
Q 384 1609 779 1909 
Q 1175 2209 1959 2209 
L 2766 2209 
L 2766 2266 
Q 2766 2663 2505 2880 
Q 2244 3097 1772 3097 
Q 1472 3097 1187 3025 
Q 903 2953 641 2809 
L 641 3341 
Q 956 3463 1253 3523 
Q 1550 3584 1831 3584 
Q 2591 3584 2966 3190 
Q 3341 2797 3341 1997 
z
" id="DejaVuSans-61" transform="scale(0.015625)"/>
      <path d="M 603 4863 
L 1178 4863 
L 1178 0 
L 603 0 
L 603 4863 
z
" id="DejaVuSans-6c" transform="scale(0.015625)"/>
     </defs>
     <use xlink:href="#DejaVuSans-54"/>
     <use x="57.958984" xlink:href="#DejaVuSans-69"/>
     <use x="85.742188" xlink:href="#DejaVuSans-70"/>
     <use x="149.21875" xlink:href="#DejaVuSans-6f"/>
     <use x="210.400391" xlink:href="#DejaVuSans-20"/>
     <use x="242.1875" xlink:href="#DejaVuSans-64"/>
     <use x="305.664062" xlink:href="#DejaVuSans-65"/>
     <use x="367.1875" xlink:href="#DejaVuSans-20"/>
     <use x="398.974609" xlink:href="#DejaVuSans-65"/>
     <use x="460.498047" xlink:href="#DejaVuSans-6d"/>
     <use x="557.910156" xlink:href="#DejaVuSans-70"/>
     <use x="621.386719" xlink:href="#DejaVuSans-72"/>
     <use x="660.25" xlink:href="#DejaVuSans-65"/>
     <use x="721.773438" xlink:href="#DejaVuSans-73"/>
     <use x="773.873047" xlink:href="#DejaVuSans-61"/>
     <use x="835.152344" xlink:href="#DejaVuSans-20"/>
     <use x="866.939453" xlink:href="#DejaVuSans-63"/>
     <use x="921.919922" xlink:href="#DejaVuSans-6f"/>
     <use x="983.101562" xlink:href="#DejaVuSans-6e"/>
     <use x="1046.480469" xlink:href="#DejaVuSans-73"/>
     <use x="1098.580078" xlink:href="#DejaVuSans-75"/>
     <use x="1161.958984" xlink:href="#DejaVuSans-6c"/>
     <use x="1189.742188" xlink:href="#DejaVuSans-74"/>
     <use x="1228.951172" xlink:href="#DejaVuSans-6f"/>
     <use x="1290.132812" xlink:href="#DejaVuSans-72"/>
     <use x="1331.246094" xlink:href="#DejaVuSans-61"/>
    </g>
   </g>
  </g>
  <g id="axes_2">
   <g id="patch_16">
    <path d="M 473.236364 108 
L 777.6 108 
L 777.6 43.2 
L 473.236364 43.2 
z
" style="fill:#ffffff;"/>
   </g>
   <g id="patch_17">
    <path clip-path="url(#p268681609e)" d="M 479.323636 108 
L 528.021818 108 
L 528.021818 98.625291 
L 479.323636 98.625291 
z
" style="fill:#3274a1;"/>
   </g>
   <g id="patch_18">
    <path clip-path="url(#p268681609e)" d="M 540.196364 108 
L 588.894545 108 
L 588.894545 51.813771 
L 540.196364 51.813771 
z
" style="fill:#e1812c;"/>
   </g>
   <g id="patch_19">
    <path clip-path="url(#p268681609e)" d="M 601.069091 108 
L 649.767273 108 
L 649.767273 102.606789 
L 601.069091 102.606789 
z
" style="fill:#3a923a;"/>
   </g>
   <g id="patch_20">
    <path clip-path="url(#p268681609e)" d="M 661.941818 108 
L 710.64 108 
L 710.64 106.309646 
L 661.941818 106.309646 
z
" style="fill:#c03d3e;"/>
   </g>
   <g id="patch_21">
    <path clip-path="url(#p268681609e)" d="M 722.814545 108 
L 771.512727 108 
L 771.512727 102.683623 
L 722.814545 102.683623 
z
" style="fill:#9372b2;"/>
   </g>
   <g id="matplotlib.axis_3">
    <g id="xtick_10">
     <g id="line2d_13">
      <g>
       <use style="stroke:#000000;stroke-width:0.8;" x="503.672727" xlink:href="#me745c54156" y="108"/>
      </g>
     </g>
     <g id="text_25">
      <!-- PQ -->
      <g transform="translate(496.721946 122.598438)scale(0.1 -0.1)">
       <defs>
        <path d="M 2522 4238 
Q 1834 4238 1429 3725 
Q 1025 3213 1025 2328 
Q 1025 1447 1429 934 
Q 1834 422 2522 422 
Q 3209 422 3611 934 
Q 4013 1447 4013 2328 
Q 4013 3213 3611 3725 
Q 3209 4238 2522 4238 
z
M 3406 84 
L 4238 -825 
L 3475 -825 
L 2784 -78 
Q 2681 -84 2626 -87 
Q 2572 -91 2522 -91 
Q 1538 -91 948 567 
Q 359 1225 359 2328 
Q 359 3434 948 4092 
Q 1538 4750 2522 4750 
Q 3503 4750 4090 4092 
Q 4678 3434 4678 2328 
Q 4678 1516 4351 937 
Q 4025 359 3406 84 
z
" id="DejaVuSans-51" transform="scale(0.015625)"/>
       </defs>
       <use xlink:href="#DejaVuSans-50"/>
       <use x="60.302734" xlink:href="#DejaVuSans-51"/>
      </g>
     </g>
    </g>
    <g id="xtick_11">
     <g id="line2d_14">
      <g>
       <use style="stroke:#000000;stroke-width:0.8;" x="564.545455" xlink:href="#me745c54156" y="108"/>
      </g>
     </g>
     <g id="text_26">
      <!-- MC -->
      <g transform="translate(556.739986 122.598438)scale(0.1 -0.1)">
       <use xlink:href="#DejaVuSans-4d"/>
       <use x="86.279297" xlink:href="#DejaVuSans-43"/>
      </g>
     </g>
    </g>
    <g id="xtick_12">
     <g id="line2d_15">
      <g>
       <use style="stroke:#000000;stroke-width:0.8;" x="625.418182" xlink:href="#me745c54156" y="108"/>
      </g>
     </g>
     <g id="text_27">
      <!-- GR -->
      <g transform="translate(618.069744 122.598438)scale(0.1 -0.1)">
       <use xlink:href="#DejaVuSans-47"/>
       <use x="77.490234" xlink:href="#DejaVuSans-52"/>
      </g>
     </g>
    </g>
    <g id="xtick_13">
     <g id="line2d_16">
      <g>
       <use style="stroke:#000000;stroke-width:0.8;" x="686.290909" xlink:href="#me745c54156" y="108"/>
      </g>
     </g>
     <g id="text_28">
      <!-- SD -->
      <g transform="translate(679.26669 122.598438)scale(0.1 -0.1)">
       <use xlink:href="#DejaVuSans-53"/>
       <use x="63.476562" xlink:href="#DejaVuSans-44"/>
      </g>
     </g>
    </g>
    <g id="xtick_14">
     <g id="line2d_17">
      <g>
       <use style="stroke:#000000;stroke-width:0.8;" x="747.163636" xlink:href="#me745c54156" y="108"/>
      </g>
     </g>
     <g id="text_29">
      <!-- MD -->
      <g transform="translate(738.999574 122.598438)scale(0.1 -0.1)">
       <use xlink:href="#DejaVuSans-4d"/>
       <use x="86.279297" xlink:href="#DejaVuSans-44"/>
      </g>
     </g>
    </g>
    <g id="text_30">
     <!-- usu_tamanio -->
     <g transform="translate(593.400213 136.276563)scale(0.1 -0.1)">
      <use xlink:href="#DejaVuSans-75"/>
      <use x="63.378906" xlink:href="#DejaVuSans-73"/>
      <use x="115.478516" xlink:href="#DejaVuSans-75"/>
      <use x="178.857422" xlink:href="#DejaVuSans-5f"/>
      <use x="228.857422" xlink:href="#DejaVuSans-74"/>
      <use x="268.066406" xlink:href="#DejaVuSans-61"/>
      <use x="329.345703" xlink:href="#DejaVuSans-6d"/>
      <use x="426.757812" xlink:href="#DejaVuSans-61"/>
      <use x="488.037109" xlink:href="#DejaVuSans-6e"/>
      <use x="551.416016" xlink:href="#DejaVuSans-69"/>
      <use x="579.199219" xlink:href="#DejaVuSans-6f"/>
     </g>
    </g>
   </g>
   <g id="matplotlib.axis_4">
    <g id="ytick_4">
     <g id="line2d_18">
      <g>
       <use style="stroke:#000000;stroke-width:0.8;" x="473.236364" xlink:href="#m1641839119" y="108"/>
      </g>
     </g>
     <g id="text_31">
      <!-- 0 -->
      <g transform="translate(459.873864 111.799219)scale(0.1 -0.1)">
       <use xlink:href="#DejaVuSans-30"/>
      </g>
     </g>
    </g>
    <g id="ytick_5">
     <g id="line2d_19">
      <g>
       <use style="stroke:#000000;stroke-width:0.8;" x="473.236364" xlink:href="#m1641839119" y="84.857143"/>
      </g>
     </g>
     <g id="text_32">
      <!-- 25000 -->
      <g transform="translate(434.423864 88.656362)scale(0.1 -0.1)">
       <use xlink:href="#DejaVuSans-32"/>
       <use x="63.623047" xlink:href="#DejaVuSans-35"/>
       <use x="127.246094" xlink:href="#DejaVuSans-30"/>
       <use x="190.869141" xlink:href="#DejaVuSans-30"/>
       <use x="254.492188" xlink:href="#DejaVuSans-30"/>
      </g>
     </g>
    </g>
    <g id="ytick_6">
     <g id="line2d_20">
      <g>
       <use style="stroke:#000000;stroke-width:0.8;" x="473.236364" xlink:href="#m1641839119" y="61.714286"/>
      </g>
     </g>
     <g id="text_33">
      <!-- 50000 -->
      <g transform="translate(434.423864 65.513504)scale(0.1 -0.1)">
       <use xlink:href="#DejaVuSans-35"/>
       <use x="63.623047" xlink:href="#DejaVuSans-30"/>
       <use x="127.246094" xlink:href="#DejaVuSans-30"/>
       <use x="190.869141" xlink:href="#DejaVuSans-30"/>
       <use x="254.492188" xlink:href="#DejaVuSans-30"/>
      </g>
     </g>
    </g>
    <g id="text_34">
     <!-- count -->
     <g transform="translate(428.344176 89.70625)rotate(-90)scale(0.1 -0.1)">
      <use xlink:href="#DejaVuSans-63"/>
      <use x="54.980469" xlink:href="#DejaVuSans-6f"/>
      <use x="116.162109" xlink:href="#DejaVuSans-75"/>
      <use x="179.541016" xlink:href="#DejaVuSans-6e"/>
      <use x="242.919922" xlink:href="#DejaVuSans-74"/>
     </g>
    </g>
   </g>
   <g id="patch_22">
    <path d="M 473.236364 108 
L 473.236364 43.2 
" style="fill:none;stroke:#000000;stroke-linecap:square;stroke-linejoin:miter;stroke-width:0.8;"/>
   </g>
   <g id="patch_23">
    <path d="M 777.6 108 
L 777.6 43.2 
" style="fill:none;stroke:#000000;stroke-linecap:square;stroke-linejoin:miter;stroke-width:0.8;"/>
   </g>
   <g id="patch_24">
    <path d="M 473.236364 108 
L 777.6 108 
" style="fill:none;stroke:#000000;stroke-linecap:square;stroke-linejoin:miter;stroke-width:0.8;"/>
   </g>
   <g id="patch_25">
    <path d="M 473.236364 43.2 
L 777.6 43.2 
" style="fill:none;stroke:#000000;stroke-linecap:square;stroke-linejoin:miter;stroke-width:0.8;"/>
   </g>
   <g id="text_35">
    <!-- 10127 -->
    <g transform="translate(487.766477 99.533238)scale(0.1 -0.1)">
     <use xlink:href="#DejaVuSans-31"/>
     <use x="63.623047" xlink:href="#DejaVuSans-30"/>
     <use x="127.246094" xlink:href="#DejaVuSans-31"/>
     <use x="190.869141" xlink:href="#DejaVuSans-32"/>
     <use x="254.492188" xlink:href="#DejaVuSans-37"/>
    </g>
   </g>
   <g id="text_36">
    <!-- 60695 -->
    <g transform="translate(548.639205 52.721718)scale(0.1 -0.1)">
     <use xlink:href="#DejaVuSans-36"/>
     <use x="63.623047" xlink:href="#DejaVuSans-30"/>
     <use x="127.246094" xlink:href="#DejaVuSans-36"/>
     <use x="190.869141" xlink:href="#DejaVuSans-39"/>
     <use x="254.492188" xlink:href="#DejaVuSans-35"/>
    </g>
   </g>
   <g id="text_37">
    <!-- 5826 -->
    <g transform="translate(612.693182 103.514735)scale(0.1 -0.1)">
     <use xlink:href="#DejaVuSans-35"/>
     <use x="63.623047" xlink:href="#DejaVuSans-38"/>
     <use x="127.246094" xlink:href="#DejaVuSans-32"/>
     <use x="190.869141" xlink:href="#DejaVuSans-36"/>
    </g>
   </g>
   <g id="text_38">
    <!-- 1826 -->
    <g transform="translate(673.565909 107.217592)scale(0.1 -0.1)">
     <use xlink:href="#DejaVuSans-31"/>
     <use x="63.623047" xlink:href="#DejaVuSans-38"/>
     <use x="127.246094" xlink:href="#DejaVuSans-32"/>
     <use x="190.869141" xlink:href="#DejaVuSans-36"/>
    </g>
   </g>
   <g id="text_39">
    <!-- 5743 -->
    <g transform="translate(734.438636 103.591569)scale(0.1 -0.1)">
     <use xlink:href="#DejaVuSans-35"/>
     <use x="63.623047" xlink:href="#DejaVuSans-37"/>
     <use x="127.246094" xlink:href="#DejaVuSans-34"/>
     <use x="190.869141" xlink:href="#DejaVuSans-33"/>
    </g>
   </g>
   <g id="text_40">
    <!-- Tamao de la empresa consultora -->
    <g transform="translate(523.893494 37.2)scale(0.12 -0.12)">
     <defs>
      <path d="M 3513 2113 
L 3513 0 
L 2938 0 
L 2938 2094 
Q 2938 2591 2744 2837 
Q 2550 3084 2163 3084 
Q 1697 3084 1428 2787 
Q 1159 2491 1159 1978 
L 1159 0 
L 581 0 
L 581 3500 
L 1159 3500 
L 1159 2956 
Q 1366 3272 1645 3428 
Q 1925 3584 2291 3584 
Q 2894 3584 3203 3211 
Q 3513 2838 3513 2113 
z
M 2060 4281 
L 1881 4453 
Q 1813 4516 1761 4545 
Q 1710 4575 1669 4575 
Q 1550 4575 1494 4461 
Q 1438 4347 1431 4091 
L 1041 4091 
Q 1047 4513 1206 4742 
Q 1366 4972 1650 4972 
Q 1769 4972 1869 4928 
Q 1969 4884 2085 4781 
L 2263 4609 
Q 2331 4547 2383 4517 
Q 2435 4488 2475 4488 
Q 2594 4488 2650 4602 
Q 2706 4716 2713 4972 
L 3103 4972 
Q 3097 4550 2937 4320 
Q 2778 4091 2494 4091 
Q 2375 4091 2275 4134 
Q 2175 4178 2060 4281 
z
" id="DejaVuSans-f1" transform="scale(0.015625)"/>
     </defs>
     <use xlink:href="#DejaVuSans-54"/>
     <use x="44.583984" xlink:href="#DejaVuSans-61"/>
     <use x="105.863281" xlink:href="#DejaVuSans-6d"/>
     <use x="203.275391" xlink:href="#DejaVuSans-61"/>
     <use x="264.554688" xlink:href="#DejaVuSans-f1"/>
     <use x="327.933594" xlink:href="#DejaVuSans-6f"/>
     <use x="389.115234" xlink:href="#DejaVuSans-20"/>
     <use x="420.902344" xlink:href="#DejaVuSans-64"/>
     <use x="484.378906" xlink:href="#DejaVuSans-65"/>
     <use x="545.902344" xlink:href="#DejaVuSans-20"/>
     <use x="577.689453" xlink:href="#DejaVuSans-6c"/>
     <use x="605.472656" xlink:href="#DejaVuSans-61"/>
     <use x="666.751953" xlink:href="#DejaVuSans-20"/>
     <use x="698.539062" xlink:href="#DejaVuSans-65"/>
     <use x="760.0625" xlink:href="#DejaVuSans-6d"/>
     <use x="857.474609" xlink:href="#DejaVuSans-70"/>
     <use x="920.951172" xlink:href="#DejaVuSans-72"/>
     <use x="959.814453" xlink:href="#DejaVuSans-65"/>
     <use x="1021.337891" xlink:href="#DejaVuSans-73"/>
     <use x="1073.4375" xlink:href="#DejaVuSans-61"/>
     <use x="1134.716797" xlink:href="#DejaVuSans-20"/>
     <use x="1166.503906" xlink:href="#DejaVuSans-63"/>
     <use x="1221.484375" xlink:href="#DejaVuSans-6f"/>
     <use x="1282.666016" xlink:href="#DejaVuSans-6e"/>
     <use x="1346.044922" xlink:href="#DejaVuSans-73"/>
     <use x="1398.144531" xlink:href="#DejaVuSans-75"/>
     <use x="1461.523438" xlink:href="#DejaVuSans-6c"/>
     <use x="1489.306641" xlink:href="#DejaVuSans-74"/>
     <use x="1528.515625" xlink:href="#DejaVuSans-6f"/>
     <use x="1589.697266" xlink:href="#DejaVuSans-72"/>
     <use x="1630.810547" xlink:href="#DejaVuSans-61"/>
    </g>
   </g>
  </g>
 </g>
 <defs>
  <clipPath id="pd48a9d8e82">
   <rect height="64.8" width="304.363636" x="108" y="43.2"/>
  </clipPath>
  <clipPath id="p268681609e">
   <rect height="64.8" width="304.363636" x="473.236364" y="43.2"/>
  </clipPath>
 </defs>
</svg>
